<svg width="240" height="50" viewBox="0 0 240 50" fill="none" xmlns="http://www.w3.org/2000/svg">
<path d="M0 35V15C0 6.71573 6.71573 0 15 0H35C43.2843 0 50 6.71573 50 15V35C50 43.2843 43.2843 50 35 50H15C6.71573 50 0 43.2843 0 35Z" fill="#00ADB5"/>
<path d="M12 23H14" stroke="white" stroke-width="2" stroke-linecap="round"/>
<path d="M16 27H23" stroke="white" stroke-width="2" stroke-linecap="round"/>
<path d="M23 12H27" stroke="white" stroke-width="2" stroke-linecap="round"/>
<path d="M23 15L23 16" stroke="white" stroke-width="2" stroke-linecap="round"/>
<path d="M27 15L27 21" stroke="white" stroke-width="2" stroke-linecap="round"/>
<path d="M27 24L27 30" stroke="white" stroke-width="2" stroke-linecap="round"/>
<path d="M35 38V35" stroke="white" stroke-width="2" stroke-linecap="round"/>
<path d="M35 32V31" stroke="white" stroke-width="2" stroke-linecap="round"/>
<path d="M27 38V37" stroke="white" stroke-width="2" stroke-linecap="round"/>
<path d="M27 34V33" stroke="white" stroke-width="2" stroke-linecap="round"/>
<path d="M31 34V31" stroke="white" stroke-width="2" stroke-linecap="round"/>
<path d="M31 38H32" stroke="white" stroke-width="2" stroke-linecap="round"/>
<path d="M38 31V34" stroke="white" stroke-width="2" stroke-linecap="round"/>
<path d="M38 37V38" stroke="white" stroke-width="2" stroke-linecap="round"/>
<path d="M23 34L23 38" stroke="white" stroke-width="2" stroke-linecap="round"/>
<path d="M34 27L34.5 27" stroke="white" stroke-width="2" stroke-linecap="round"/>
<path d="M31 27H31.5" stroke="white" stroke-width="2" stroke-linecap="round"/>
<path d="M23 30L23 31" stroke="white" stroke-width="2" stroke-linecap="round"/>
<path d="M31 23H38" stroke="white" stroke-width="2" stroke-linecap="round"/>
<path d="M37 27H38" stroke="white" stroke-width="2" stroke-linecap="round"/>
<path d="M18 23H19" stroke="white" stroke-width="2" stroke-linecap="round"/>
<path d="M12 27H13" stroke="white" stroke-width="2" stroke-linecap="round"/>
<path d="M23 24L23 20" stroke="white" stroke-width="2" stroke-linecap="round"/>
<path d="M31 18V12C31 11.4477 31.4477 11 32 11H38C38.5523 11 39 11.4477 39 12V18C39 18.5523 38.5523 19 38 19H32C31.4477 19 31 18.5523 31 18Z" fill="#00ADB5" stroke="white" stroke-width="2"/>
<path d="M11 18V12C11 11.4477 11.4477 11 12 11H18C18.5523 11 19 11.4477 19 12V18C19 18.5523 18.5523 19 18 19H12C11.4477 19 11 18.5523 11 18Z" fill="#00ADB5" stroke="white" stroke-width="2"/>
<path d="M11 38V32C11 31.4477 11.4477 31 12 31H18C18.5523 31 19 31.4477 19 32V38C19 38.5523 18.5523 39 18 39H12C11.4477 39 11 38.5523 11 38Z" fill="#00ADB5" stroke="white" stroke-width="2"/>
<path d="M68.3251 35.416C67.0665 35.416 65.8718 35.2773 64.7411 35C63.6318 34.7227 62.6825 34.3493 61.8931 33.88L62.2771 29.592C63.2371 30.1893 64.2398 30.6587 65.2851 31C66.3518 31.32 67.3331 31.48 68.2291 31.48C69.2531 31.48 70.0851 31.2667 70.7251 30.84C71.3651 30.4133 71.6851 29.848 71.6851 29.144C71.6851 28.632 71.5251 28.2373 71.2051 27.96C70.8851 27.6613 70.4691 27.4053 69.9571 27.192C69.4451 26.9787 68.8798 26.744 68.2611 26.488C67.5571 26.1893 66.8318 25.88 66.0851 25.56C65.3598 25.24 64.6771 24.856 64.0371 24.408C63.4185 23.9387 62.9065 23.3413 62.5011 22.616C62.1171 21.8907 61.9251 20.9733 61.9251 19.864C61.9251 17.8373 62.6185 16.2373 64.0051 15.064C65.3918 13.8693 67.3225 13.272 69.7971 13.272C71.6958 13.272 73.6158 13.656 75.5571 14.424L74.8531 18.648C74.0638 18.2 73.2105 17.848 72.2931 17.592C71.3971 17.336 70.5438 17.208 69.7331 17.208C68.7305 17.208 67.9518 17.4107 67.3971 17.816C66.8425 18.2 66.5651 18.7227 66.5651 19.384C66.5651 20.0027 66.7891 20.4827 67.2371 20.824C67.7065 21.144 68.2931 21.4533 68.9971 21.752C69.7011 22.0507 70.4691 22.36 71.3011 22.68C72.1545 22.9787 72.9545 23.3733 73.7011 23.864C74.4691 24.3333 75.0985 24.9733 75.5891 25.784C76.0798 26.5733 76.3251 27.5973 76.3251 28.856C76.3251 30.9253 75.6211 32.536 74.2131 33.688C72.8265 34.84 70.8638 35.416 68.3251 35.416ZM87.5256 35.48C84.795 35.48 82.6723 34.7547 81.1576 33.304C79.6643 31.8533 78.9176 29.8053 78.9176 27.16C78.9176 25.3467 79.2696 23.7573 79.9736 22.392C80.6776 21.0267 81.6696 19.9707 82.9496 19.224C84.2296 18.456 85.7123 18.072 87.3976 18.072C88.2083 18.072 89.0403 18.168 89.8936 18.36C90.747 18.5307 91.4083 18.7333 91.8776 18.968L91.0136 22.776C90.523 22.5413 89.979 22.36 89.3816 22.232C88.7843 22.0827 88.2403 22.008 87.7496 22.008C86.4483 22.008 85.3923 22.456 84.5816 23.352C83.771 24.248 83.3656 25.432 83.3656 26.904C83.3656 28.3973 83.7816 29.5493 84.6136 30.36C85.4456 31.1707 86.6083 31.576 88.1016 31.576C89.1043 31.576 90.1816 31.384 91.3336 31L92.0056 34.648C91.2803 34.9253 90.5443 35.128 89.7976 35.256C89.0723 35.4053 88.315 35.48 87.5256 35.48ZM99.8324 35.48C98.147 35.48 96.7924 34.7653 95.7684 33.336C94.7657 31.8853 94.2644 29.9013 94.2644 27.384C94.2644 24.3547 95.0324 22.0507 96.5684 20.472C98.1044 18.872 100.312 18.072 103.192 18.072C104.814 18.072 106.712 18.328 108.888 18.84V35H104.6L104.696 32.376H104.568C103.459 34.4453 101.88 35.48 99.8324 35.48ZM100.792 31.544C101.496 31.544 102.168 31.1707 102.808 30.424C103.448 29.6773 104.024 28.76 104.536 27.672V22.296C104.195 22.1893 103.843 22.1147 103.48 22.072C103.118 22.0293 102.787 22.008 102.488 22.008C99.907 22.008 98.6164 23.736 98.6164 27.192C98.6164 28.536 98.8084 29.6027 99.1924 30.392C99.5764 31.16 100.11 31.544 100.792 31.544ZM113.252 35V18.52H117.668V21.368C118.351 20.216 119.14 19.384 120.036 18.872C120.953 18.3387 121.999 18.072 123.172 18.072C124.943 18.072 126.329 18.6053 127.332 19.672C128.335 20.7173 128.836 22.1787 128.836 24.056V35H124.324V24.76C124.324 23.8853 124.111 23.2133 123.684 22.744C123.257 22.2747 122.681 22.04 121.956 22.04C121.081 22.04 120.26 22.3707 119.492 23.032C118.745 23.672 118.169 24.472 117.764 25.432V35H113.252ZM148.398 35.704L145.902 33.08C145.027 33.8267 143.971 34.4133 142.734 34.84C141.518 35.2667 140.259 35.48 138.958 35.48C136.931 35.48 135.299 34.9787 134.062 33.976C132.824 32.952 132.206 31.576 132.206 29.848C132.206 28.7813 132.419 27.8533 132.846 27.064C133.272 26.2533 133.806 25.5493 134.446 24.952C135.107 24.3333 135.768 23.8 136.43 23.352C135.598 22.3493 135.043 21.4853 134.766 20.76C134.488 20.0133 134.35 19.288 134.35 18.584C134.35 17.4107 134.606 16.4293 135.118 15.64C135.651 14.8293 136.355 14.2213 137.23 13.816C138.126 13.3893 139.107 13.176 140.174 13.176C141.752 13.176 142.99 13.6027 143.886 14.456C144.782 15.288 145.23 16.3973 145.23 17.784C145.23 19 144.899 20.0773 144.238 21.016C143.598 21.9333 142.83 22.776 141.934 23.544C142.403 24.0133 142.926 24.5467 143.502 25.144C144.078 25.72 144.728 26.3813 145.454 27.128C145.774 26.04 145.976 24.7067 146.062 23.128L150.158 22.616C150.179 25.5173 149.624 28.0347 148.494 30.168L151.854 33.72L148.398 35.704ZM139.598 20.984C140.067 20.6 140.483 20.152 140.846 19.64C141.208 19.128 141.39 18.5947 141.39 18.04C141.39 17.5493 141.24 17.1867 140.942 16.952C140.643 16.696 140.312 16.568 139.95 16.568C139.544 16.568 139.16 16.7173 138.798 17.016C138.435 17.2933 138.254 17.7413 138.254 18.36C138.254 18.68 138.339 19.032 138.51 19.416C138.702 19.8 139.064 20.3227 139.598 20.984ZM139.534 31.832C140.259 31.832 140.952 31.704 141.614 31.448C142.275 31.1707 142.84 30.8293 143.31 30.424C142.392 29.5067 141.56 28.6853 140.814 27.96C140.067 27.2133 139.395 26.5413 138.798 25.944C137.923 26.5413 137.304 27.1173 136.942 27.672C136.579 28.2267 136.398 28.792 136.398 29.368C136.398 30.2427 136.718 30.872 137.358 31.256C138.019 31.64 138.744 31.832 139.534 31.832ZM164.2 35.416C162.088 35.416 160.232 34.9573 158.632 34.04C157.053 33.1227 155.816 31.8427 154.92 30.2C154.045 28.536 153.608 26.616 153.608 24.44C153.608 22.2213 154.045 20.2907 154.92 18.648C155.816 17.0053 157.053 15.7253 158.632 14.808C160.232 13.8907 162.088 13.432 164.2 13.432C166.312 13.432 168.157 13.8907 169.736 14.808C171.336 15.704 172.573 16.9733 173.448 18.616C174.323 20.2373 174.76 22.136 174.76 24.312C174.76 26.5307 174.323 28.472 173.448 30.136C172.573 31.8 171.336 33.1013 169.736 34.04C168.157 34.9573 166.312 35.416 164.2 35.416ZM164.2 31.352C165.971 31.352 167.379 30.7227 168.424 29.464C169.469 28.2053 169.992 26.5307 169.992 24.44C169.992 23.0533 169.747 21.8373 169.256 20.792C168.787 19.7467 168.115 18.936 167.24 18.36C166.365 17.784 165.352 17.5067 164.2 17.528C163.048 17.5067 162.035 17.784 161.16 18.36C160.307 18.936 159.635 19.7467 159.144 20.792C158.653 21.8373 158.408 23.0533 158.408 24.44C158.408 25.8267 158.643 27.0427 159.112 28.088C159.603 29.112 160.285 29.912 161.16 30.488C162.035 31.064 163.048 31.352 164.2 31.352ZM178.223 35V18.52H182.735V21.208H182.991C183.546 20.2267 184.122 19.4587 184.719 18.904C185.338 18.328 186.138 18.04 187.119 18.04C187.503 18.04 187.823 18.0827 188.079 18.168L187.599 23.032C187.364 22.968 187.14 22.9147 186.927 22.872C186.714 22.8293 186.49 22.808 186.255 22.808C185.466 22.808 184.836 23.0427 184.367 23.512C183.898 23.96 183.354 24.568 182.735 25.336V35H178.223ZM195.498 35.48C193.663 35.48 192.212 34.776 191.146 33.368C190.079 31.9387 189.546 29.9547 189.546 27.416C189.546 24.3867 190.324 22.072 191.882 20.472C193.46 18.872 195.7 18.072 198.602 18.072C198.9 18.072 199.178 18.0827 199.434 18.104C199.69 18.104 199.956 18.1147 200.234 18.136V11.64H204.682V35H200.298L200.394 32.856H200.266C199.135 34.6053 197.546 35.48 195.498 35.48ZM196.522 31.544C197.204 31.544 197.866 31.256 198.506 30.68C199.146 30.0827 199.722 29.24 200.234 28.152V22.296C199.508 22.104 198.815 22.008 198.154 22.008C196.81 22.008 195.786 22.4453 195.082 23.32C194.399 24.1947 194.058 25.4747 194.058 27.16C194.058 28.5253 194.271 29.6027 194.698 30.392C195.146 31.16 195.754 31.544 196.522 31.544ZM216.59 35.48C213.945 35.48 211.854 34.712 210.318 33.176C208.782 31.64 208.014 29.5067 208.014 26.776C208.014 24.984 208.345 23.4373 209.006 22.136C209.668 20.8347 210.596 19.832 211.79 19.128C213.006 18.424 214.425 18.072 216.046 18.072C218.436 18.072 220.27 18.84 221.55 20.376C222.83 21.912 223.47 24.1307 223.47 27.032C223.47 27.224 223.47 27.416 223.47 27.608C223.47 27.7787 223.46 27.9493 223.438 28.12H212.558C212.985 30.424 214.51 31.576 217.134 31.576C217.945 31.576 218.766 31.48 219.598 31.288C220.452 31.0747 221.198 30.7973 221.838 30.456L222.574 34.072C220.804 35.0107 218.809 35.48 216.59 35.48ZM212.526 24.728H219.15C219.086 23.8107 218.766 23.0853 218.19 22.552C217.614 21.9973 216.846 21.72 215.886 21.72C214.969 21.72 214.212 21.9867 213.614 22.52C213.038 23.0533 212.676 23.7893 212.526 24.728ZM226.942 35V18.52H231.454V21.208H231.71C232.264 20.2267 232.84 19.4587 233.438 18.904C234.056 18.328 234.856 18.04 235.838 18.04C236.222 18.04 236.542 18.0827 236.798 18.168L236.318 23.032C236.083 22.968 235.859 22.9147 235.646 22.872C235.432 22.8293 235.208 22.808 234.974 22.808C234.184 22.808 233.555 23.0427 233.086 23.512C232.616 23.96 232.072 24.568 231.454 25.336V35H226.942Z" fill="white"/>
</svg>
