<svg width="160" height="50" viewBox="0 0 160 50" fill="none" xmlns="http://www.w3.org/2000/svg">
<path d="M0 35V15C0 6.71573 6.71573 0 15 0H35C43.2843 0 50 6.71573 50 15V35C50 43.2843 43.2843 50 35 50H15C6.71573 50 0 43.2843 0 35Z" fill="#00ADB5"/>
<path d="M12 23H14" stroke="white" stroke-width="2" stroke-linecap="round"/>
<path d="M16 27H23" stroke="white" stroke-width="2" stroke-linecap="round"/>
<path d="M23 12H27" stroke="white" stroke-width="2" stroke-linecap="round"/>
<path d="M23 15L23 16" stroke="white" stroke-width="2" stroke-linecap="round"/>
<path d="M27 15L27 21" stroke="white" stroke-width="2" stroke-linecap="round"/>
<path d="M27 24L27 30" stroke="white" stroke-width="2" stroke-linecap="round"/>
<path d="M35 38V35" stroke="white" stroke-width="2" stroke-linecap="round"/>
<path d="M35 32V31" stroke="white" stroke-width="2" stroke-linecap="round"/>
<path d="M27 38V37" stroke="white" stroke-width="2" stroke-linecap="round"/>
<path d="M27 34V33" stroke="white" stroke-width="2" stroke-linecap="round"/>
<path d="M31 34V31" stroke="white" stroke-width="2" stroke-linecap="round"/>
<path d="M31 38H32" stroke="white" stroke-width="2" stroke-linecap="round"/>
<path d="M38 31V34" stroke="white" stroke-width="2" stroke-linecap="round"/>
<path d="M38 37V38" stroke="white" stroke-width="2" stroke-linecap="round"/>
<path d="M23 34L23 38" stroke="white" stroke-width="2" stroke-linecap="round"/>
<path d="M34 27L34.5 27" stroke="white" stroke-width="2" stroke-linecap="round"/>
<path d="M31 27H31.5" stroke="white" stroke-width="2" stroke-linecap="round"/>
<path d="M23 30L23 31" stroke="white" stroke-width="2" stroke-linecap="round"/>
<path d="M31 23H38" stroke="white" stroke-width="2" stroke-linecap="round"/>
<path d="M37 27H38" stroke="white" stroke-width="2" stroke-linecap="round"/>
<path d="M18 23H19" stroke="white" stroke-width="2" stroke-linecap="round"/>
<path d="M12 27H13" stroke="white" stroke-width="2" stroke-linecap="round"/>
<path d="M23 24L23 20" stroke="white" stroke-width="2" stroke-linecap="round"/>
<path d="M31 18V12C31 11.4477 31.4477 11 32 11H38C38.5523 11 39 11.4477 39 12V18C39 18.5523 38.5523 19 38 19H32C31.4477 19 31 18.5523 31 18Z" fill="#00ADB5" stroke="white" stroke-width="2"/>
<path d="M11 18V12C11 11.4477 11.4477 11 12 11H18C18.5523 11 19 11.4477 19 12V18C19 18.5523 18.5523 19 18 19H12C11.4477 19 11 18.5523 11 18Z" fill="#00ADB5" stroke="white" stroke-width="2"/>
<path d="M11 38V32C11 31.4477 11.4477 31 12 31H18C18.5523 31 19 31.4477 19 32V38C19 38.5523 18.5523 39 18 39H12C11.4477 39 11 38.5523 11 38Z" fill="#00ADB5" stroke="white" stroke-width="2"/>
<path d="M64.1204 19.234C63.4124 19.234 62.7404 19.156 62.1044 19C61.4804 18.844 60.9464 18.634 60.5024 18.37L60.7184 15.958C61.2584 16.294 61.8224 16.558 62.4104 16.75C63.0104 16.93 63.5624 17.02 64.0664 17.02C64.6424 17.02 65.1104 16.9 65.4704 16.66C65.8304 16.42 66.0104 16.102 66.0104 15.706C66.0104 15.418 65.9204 15.196 65.7404 15.04C65.5604 14.872 65.3264 14.728 65.0384 14.608C64.7504 14.488 64.4324 14.356 64.0844 14.212C63.6884 14.044 63.2804 13.87 62.8604 13.69C62.4524 13.51 62.0684 13.294 61.7084 13.042C61.3604 12.778 61.0724 12.442 60.8444 12.034C60.6284 11.626 60.5204 11.11 60.5204 10.486C60.5204 9.346 60.9104 8.446 61.6904 7.786C62.4704 7.114 63.5564 6.778 64.9484 6.778C66.0164 6.778 67.0964 6.994 68.1884 7.426L67.7924 9.802C67.3484 9.55 66.8684 9.352 66.3524 9.208C65.8484 9.064 65.3684 8.992 64.9124 8.992C64.3484 8.992 63.9104 9.106 63.5984 9.334C63.2864 9.55 63.1304 9.844 63.1304 10.216C63.1304 10.564 63.2564 10.834 63.5084 11.026C63.7724 11.206 64.1024 11.38 64.4984 11.548C64.8944 11.716 65.3264 11.89 65.7944 12.07C66.2744 12.238 66.7244 12.46 67.1444 12.736C67.5764 13 67.9304 13.36 68.2064 13.816C68.4824 14.26 68.6204 14.836 68.6204 15.544C68.6204 16.708 68.2244 17.614 67.4324 18.262C66.6524 18.91 65.5484 19.234 64.1204 19.234ZM74.9207 19.27C73.3847 19.27 72.1907 18.862 71.3387 18.046C70.4987 17.23 70.0787 16.078 70.0787 14.59C70.0787 13.57 70.2767 12.676 70.6727 11.908C71.0687 11.14 71.6267 10.546 72.3467 10.126C73.0667 9.694 73.9007 9.478 74.8487 9.478C75.3047 9.478 75.7727 9.532 76.2527 9.64C76.7327 9.736 77.1047 9.85 77.3687 9.982L76.8827 12.124C76.6067 11.992 76.3007 11.89 75.9647 11.818C75.6287 11.734 75.3227 11.692 75.0467 11.692C74.3147 11.692 73.7207 11.944 73.2647 12.448C72.8087 12.952 72.5807 13.618 72.5807 14.446C72.5807 15.286 72.8147 15.934 73.2827 16.39C73.7507 16.846 74.4047 17.074 75.2447 17.074C75.8087 17.074 76.4147 16.966 77.0627 16.75L77.4407 18.802C77.0327 18.958 76.6187 19.072 76.1987 19.144C75.7907 19.228 75.3647 19.27 74.9207 19.27ZM81.8432 19.27C80.8952 19.27 80.1332 18.868 79.5572 18.064C78.9932 17.248 78.7112 16.132 78.7112 14.716C78.7112 13.012 79.1432 11.716 80.0072 10.828C80.8712 9.928 82.1132 9.478 83.7332 9.478C84.6452 9.478 85.7132 9.622 86.9372 9.91V19H84.5252L84.5792 17.524H84.5072C83.8832 18.688 82.9952 19.27 81.8432 19.27ZM82.3832 17.056C82.7792 17.056 83.1572 16.846 83.5172 16.426C83.8772 16.006 84.2012 15.49 84.4892 14.878V11.854C84.2972 11.794 84.0992 11.752 83.8952 11.728C83.6912 11.704 83.5052 11.692 83.3372 11.692C81.8852 11.692 81.1592 12.664 81.1592 14.608C81.1592 15.364 81.2672 15.964 81.4832 16.408C81.6992 16.84 81.9992 17.056 82.3832 17.056ZM89.3917 19V9.73H91.8757V11.332C92.2597 10.684 92.7037 10.216 93.2077 9.928C93.7237 9.628 94.3117 9.478 94.9717 9.478C95.9677 9.478 96.7477 9.778 97.3117 10.378C97.8757 10.966 98.1577 11.788 98.1577 12.844V19H95.6197V13.24C95.6197 12.748 95.4997 12.37 95.2597 12.106C95.0197 11.842 94.6957 11.71 94.2877 11.71C93.7957 11.71 93.3337 11.896 92.9017 12.268C92.4817 12.628 92.1577 13.078 91.9297 13.618V19H89.3917ZM109.161 19.396L107.757 17.92C107.265 18.34 106.671 18.67 105.975 18.91C105.291 19.15 104.583 19.27 103.851 19.27C102.711 19.27 101.793 18.988 101.097 18.424C100.401 17.848 100.053 17.074 100.053 16.102C100.053 15.502 100.173 14.98 100.413 14.536C100.653 14.08 100.953 13.684 101.313 13.348C101.685 13 102.057 12.7 102.429 12.448C101.961 11.884 101.649 11.398 101.493 10.99C101.337 10.57 101.259 10.162 101.259 9.766C101.259 9.106 101.403 8.554 101.691 8.11C101.991 7.654 102.387 7.312 102.879 7.084C103.383 6.844 103.935 6.724 104.535 6.724C105.423 6.724 106.119 6.964 106.623 7.444C107.127 7.912 107.379 8.536 107.379 9.316C107.379 10 107.193 10.606 106.821 11.134C106.461 11.65 106.029 12.124 105.525 12.556C105.789 12.82 106.083 13.12 106.407 13.456C106.731 13.78 107.097 14.152 107.505 14.572C107.685 13.96 107.799 13.21 107.847 12.322L110.151 12.034C110.163 13.666 109.851 15.082 109.215 16.282L111.105 18.28L109.161 19.396ZM104.211 11.116C104.475 10.9 104.709 10.648 104.913 10.36C105.117 10.072 105.219 9.772 105.219 9.46C105.219 9.184 105.135 8.98 104.967 8.848C104.799 8.704 104.613 8.632 104.409 8.632C104.181 8.632 103.965 8.716 103.761 8.884C103.557 9.04 103.455 9.292 103.455 9.64C103.455 9.82 103.503 10.018 103.599 10.234C103.707 10.45 103.911 10.744 104.211 11.116ZM104.175 17.218C104.583 17.218 104.973 17.146 105.345 17.002C105.717 16.846 106.035 16.654 106.299 16.426C105.783 15.91 105.315 15.448 104.895 15.04C104.475 14.62 104.097 14.242 103.761 13.906C103.269 14.242 102.921 14.566 102.717 14.878C102.513 15.19 102.411 15.508 102.411 15.832C102.411 16.324 102.591 16.678 102.951 16.894C103.323 17.11 103.731 17.218 104.175 17.218ZM118.05 19.234C116.862 19.234 115.818 18.976 114.918 18.46C114.03 17.944 113.334 17.224 112.83 16.3C112.338 15.364 112.092 14.284 112.092 13.06C112.092 11.812 112.338 10.726 112.83 9.802C113.334 8.878 114.03 8.158 114.918 7.642C115.818 7.126 116.862 6.868 118.05 6.868C119.238 6.868 120.276 7.126 121.164 7.642C122.064 8.146 122.76 8.86 123.252 9.784C123.744 10.696 123.99 11.764 123.99 12.988C123.99 14.236 123.744 15.328 123.252 16.264C122.76 17.2 122.064 17.932 121.164 18.46C120.276 18.976 119.238 19.234 118.05 19.234ZM118.05 16.948C119.046 16.948 119.838 16.594 120.426 15.886C121.014 15.178 121.308 14.236 121.308 13.06C121.308 12.28 121.17 11.596 120.894 11.008C120.63 10.42 120.252 9.964 119.76 9.64C119.268 9.316 118.698 9.16 118.05 9.172C117.402 9.16 116.832 9.316 116.34 9.64C115.86 9.964 115.482 10.42 115.206 11.008C114.93 11.596 114.792 12.28 114.792 13.06C114.792 13.84 114.924 14.524 115.188 15.112C115.464 15.688 115.848 16.138 116.34 16.462C116.832 16.786 117.402 16.948 118.05 16.948ZM125.938 19V9.73H128.476V11.242H128.62C128.932 10.69 129.256 10.258 129.592 9.946C129.94 9.622 130.39 9.46 130.942 9.46C131.158 9.46 131.338 9.484 131.482 9.532L131.212 12.268C131.08 12.232 130.954 12.202 130.834 12.178C130.714 12.154 130.588 12.142 130.456 12.142C130.012 12.142 129.658 12.274 129.394 12.538C129.13 12.79 128.824 13.132 128.476 13.564V19H125.938ZM135.655 19.27C134.623 19.27 133.807 18.874 133.207 18.082C132.607 17.278 132.307 16.162 132.307 14.734C132.307 13.03 132.745 11.728 133.621 10.828C134.509 9.928 135.769 9.478 137.401 9.478C137.569 9.478 137.725 9.484 137.869 9.496C138.013 9.496 138.163 9.502 138.319 9.514V5.86H140.821V19H138.355L138.409 17.794H138.337C137.701 18.778 136.807 19.27 135.655 19.27ZM136.231 17.056C136.615 17.056 136.987 16.894 137.347 16.57C137.707 16.234 138.031 15.76 138.319 15.148V11.854C137.911 11.746 137.521 11.692 137.149 11.692C136.393 11.692 135.817 11.938 135.421 12.43C135.037 12.922 134.845 13.642 134.845 14.59C134.845 15.358 134.965 15.964 135.205 16.408C135.457 16.84 135.799 17.056 136.231 17.056ZM147.52 19.27C146.032 19.27 144.856 18.838 143.992 17.974C143.128 17.11 142.696 15.91 142.696 14.374C142.696 13.366 142.882 12.496 143.254 11.764C143.626 11.032 144.148 10.468 144.82 10.072C145.504 9.676 146.302 9.478 147.214 9.478C148.558 9.478 149.59 9.91 150.31 10.774C151.03 11.638 151.39 12.886 151.39 14.518C151.39 14.626 151.39 14.734 151.39 14.842C151.39 14.938 151.384 15.034 151.372 15.13H145.252C145.492 16.426 146.35 17.074 147.826 17.074C148.282 17.074 148.744 17.02 149.212 16.912C149.692 16.792 150.112 16.636 150.472 16.444L150.886 18.478C149.89 19.006 148.768 19.27 147.52 19.27ZM145.234 13.222H148.96C148.924 12.706 148.744 12.298 148.42 11.998C148.096 11.686 147.664 11.53 147.124 11.53C146.608 11.53 146.182 11.68 145.846 11.98C145.522 12.28 145.318 12.694 145.234 13.222ZM153.342 19V9.73H155.88V11.242H156.024C156.336 10.69 156.66 10.258 156.996 9.946C157.344 9.622 157.794 9.46 158.346 9.46C158.562 9.46 158.742 9.484 158.886 9.532L158.616 12.268C158.484 12.232 158.358 12.202 158.238 12.178C158.118 12.154 157.992 12.142 157.86 12.142C157.416 12.142 157.062 12.274 156.798 12.538C156.534 12.79 156.228 13.132 155.88 13.564V19H153.342Z" fill="white"/>
<mask id="path-29-outside-1_354_36" maskUnits="userSpaceOnUse" x="60.5" y="29" width="62" height="15" fill="black">
<rect fill="white" x="60.5" y="29" width="62" height="15"/>
<path d="M61.0869 43L65.4789 31.012H68.6109L73.0569 43H70.3569L69.3849 40.264H64.6689L63.7509 43H61.0869ZM65.4249 38.032H68.6109L66.9909 33.442L65.4249 38.032ZM78.2457 43.27C77.2137 43.27 76.3977 42.874 75.7977 42.082C75.1977 41.278 74.8977 40.162 74.8977 38.734C74.8977 37.03 75.3357 35.728 76.2117 34.828C77.0997 33.928 78.3597 33.478 79.9917 33.478C80.1597 33.478 80.3157 33.484 80.4597 33.496C80.6037 33.496 80.7537 33.502 80.9097 33.514V29.86H83.4117V43H80.9457L80.9997 41.794H80.9277C80.2917 42.778 79.3977 43.27 78.2457 43.27ZM78.8217 41.056C79.2057 41.056 79.5777 40.894 79.9377 40.57C80.2977 40.234 80.6217 39.76 80.9097 39.148V35.854C80.5017 35.746 80.1117 35.692 79.7397 35.692C78.9837 35.692 78.4077 35.938 78.0117 36.43C77.6277 36.922 77.4357 37.642 77.4357 38.59C77.4357 39.358 77.5557 39.964 77.7957 40.408C78.0477 40.84 78.3897 41.056 78.8217 41.056ZM86.7364 43V33.73H89.2204V35.17C89.9524 34.042 90.9424 33.478 92.1904 33.478C92.8984 33.478 93.4984 33.646 93.9904 33.982C94.4944 34.318 94.8604 34.786 95.0884 35.386C95.5084 34.726 95.9764 34.246 96.4924 33.946C97.0204 33.634 97.6204 33.478 98.2924 33.478C99.2884 33.478 100.062 33.778 100.614 34.378C101.178 34.966 101.46 35.788 101.46 36.844V43H98.9224V37.24C98.9224 36.748 98.8024 36.37 98.5624 36.106C98.3344 35.842 98.0224 35.71 97.6264 35.71C97.1224 35.71 96.6604 35.914 96.2404 36.322C95.8324 36.73 95.5264 37.252 95.3224 37.888V43H92.7844V37.24C92.7844 36.76 92.6644 36.388 92.4244 36.124C92.1844 35.848 91.8664 35.71 91.4704 35.71C91.0384 35.71 90.6244 35.878 90.2284 36.214C89.8324 36.538 89.5144 37 89.2744 37.6V43H86.7364ZM105.797 32.2V29.86H108.695V32.2H105.797ZM104.393 43V40.822H106.121V35.908H104.393V33.73H108.659V40.822H110.207V43H104.393ZM112.889 43V33.73H115.373V35.332C115.757 34.684 116.201 34.216 116.705 33.928C117.221 33.628 117.809 33.478 118.469 33.478C119.465 33.478 120.245 33.778 120.809 34.378C121.373 34.966 121.655 35.788 121.655 36.844V43H119.117V37.24C119.117 36.748 118.997 36.37 118.757 36.106C118.517 35.842 118.193 35.71 117.785 35.71C117.293 35.71 116.831 35.896 116.399 36.268C115.979 36.628 115.655 37.078 115.427 37.618V43H112.889Z"/>
</mask>
<path d="M61.0869 43L65.4789 31.012H68.6109L73.0569 43H70.3569L69.3849 40.264H64.6689L63.7509 43H61.0869ZM65.4249 38.032H68.6109L66.9909 33.442L65.4249 38.032ZM78.2457 43.27C77.2137 43.27 76.3977 42.874 75.7977 42.082C75.1977 41.278 74.8977 40.162 74.8977 38.734C74.8977 37.03 75.3357 35.728 76.2117 34.828C77.0997 33.928 78.3597 33.478 79.9917 33.478C80.1597 33.478 80.3157 33.484 80.4597 33.496C80.6037 33.496 80.7537 33.502 80.9097 33.514V29.86H83.4117V43H80.9457L80.9997 41.794H80.9277C80.2917 42.778 79.3977 43.27 78.2457 43.27ZM78.8217 41.056C79.2057 41.056 79.5777 40.894 79.9377 40.57C80.2977 40.234 80.6217 39.76 80.9097 39.148V35.854C80.5017 35.746 80.1117 35.692 79.7397 35.692C78.9837 35.692 78.4077 35.938 78.0117 36.43C77.6277 36.922 77.4357 37.642 77.4357 38.59C77.4357 39.358 77.5557 39.964 77.7957 40.408C78.0477 40.84 78.3897 41.056 78.8217 41.056ZM86.7364 43V33.73H89.2204V35.17C89.9524 34.042 90.9424 33.478 92.1904 33.478C92.8984 33.478 93.4984 33.646 93.9904 33.982C94.4944 34.318 94.8604 34.786 95.0884 35.386C95.5084 34.726 95.9764 34.246 96.4924 33.946C97.0204 33.634 97.6204 33.478 98.2924 33.478C99.2884 33.478 100.062 33.778 100.614 34.378C101.178 34.966 101.46 35.788 101.46 36.844V43H98.9224V37.24C98.9224 36.748 98.8024 36.37 98.5624 36.106C98.3344 35.842 98.0224 35.71 97.6264 35.71C97.1224 35.71 96.6604 35.914 96.2404 36.322C95.8324 36.73 95.5264 37.252 95.3224 37.888V43H92.7844V37.24C92.7844 36.76 92.6644 36.388 92.4244 36.124C92.1844 35.848 91.8664 35.71 91.4704 35.71C91.0384 35.71 90.6244 35.878 90.2284 36.214C89.8324 36.538 89.5144 37 89.2744 37.6V43H86.7364ZM105.797 32.2V29.86H108.695V32.2H105.797ZM104.393 43V40.822H106.121V35.908H104.393V33.73H108.659V40.822H110.207V43H104.393ZM112.889 43V33.73H115.373V35.332C115.757 34.684 116.201 34.216 116.705 33.928C117.221 33.628 117.809 33.478 118.469 33.478C119.465 33.478 120.245 33.778 120.809 34.378C121.373 34.966 121.655 35.788 121.655 36.844V43H119.117V37.24C119.117 36.748 118.997 36.37 118.757 36.106C118.517 35.842 118.193 35.71 117.785 35.71C117.293 35.71 116.831 35.896 116.399 36.268C115.979 36.628 115.655 37.078 115.427 37.618V43H112.889Z" fill="white"/>
<path d="M61.0869 43L60.993 42.9656L60.9438 43.1H61.0869V43ZM65.4789 31.012V30.912H65.4091L65.385 30.9776L65.4789 31.012ZM68.6109 31.012L68.7047 30.9772L68.6805 30.912H68.6109V31.012ZM73.0569 43V43.1H73.2007L73.1507 42.9652L73.0569 43ZM70.3569 43L70.2627 43.0335L70.2863 43.1H70.3569V43ZM69.3849 40.264L69.4792 40.2305L69.4555 40.164H69.3849V40.264ZM64.6689 40.264V40.164H64.597L64.5741 40.2322L64.6689 40.264ZM63.7509 43V43.1H63.8229L63.8457 43.0318L63.7509 43ZM65.4249 38.032L65.3303 37.9997L65.2852 38.132H65.4249V38.032ZM68.6109 38.032V38.132H68.7523L68.7052 37.9987L68.6109 38.032ZM66.9909 33.442L67.0852 33.4087L66.9893 33.137L66.8963 33.4097L66.9909 33.442ZM61.0869 43L61.1808 43.0344L65.5728 31.0464L65.4789 31.012L65.385 30.9776L60.993 42.9656L61.0869 43ZM65.4789 31.012V31.112H68.6109V31.012V30.912H65.4789V31.012ZM68.6109 31.012L68.5172 31.0468L72.9632 43.0348L73.0569 43L73.1507 42.9652L68.7047 30.9772L68.6109 31.012ZM73.0569 43V42.9H70.3569V43V43.1H73.0569V43ZM70.3569 43L70.4512 42.9665L69.4792 40.2305L69.3849 40.264L69.2907 40.2975L70.2627 43.0335L70.3569 43ZM69.3849 40.264V40.164H64.6689V40.264V40.364H69.3849V40.264ZM64.6689 40.264L64.5741 40.2322L63.6561 42.9682L63.7509 43L63.8457 43.0318L64.7637 40.2958L64.6689 40.264ZM63.7509 43V42.9H61.0869V43V43.1H63.7509V43ZM65.4249 38.032V38.132H68.6109V38.032V37.932H65.4249V38.032ZM68.6109 38.032L68.7052 37.9987L67.0852 33.4087L66.9909 33.442L66.8966 33.4753L68.5166 38.0653L68.6109 38.032ZM66.9909 33.442L66.8963 33.4097L65.3303 37.9997L65.4249 38.032L65.5196 38.0643L67.0856 33.4743L66.9909 33.442ZM75.7977 42.082L75.7176 42.1418L75.718 42.1424L75.7977 42.082ZM76.2117 34.828L76.1405 34.7578L76.1401 34.7583L76.2117 34.828ZM80.4597 33.496L80.4514 33.596H80.4597V33.496ZM80.9097 33.514L80.9021 33.6137L81.0097 33.622V33.514H80.9097ZM80.9097 29.86V29.76H80.8097V29.86H80.9097ZM83.4117 29.86H83.5117V29.76H83.4117V29.86ZM83.4117 43V43.1H83.5117V43H83.4117ZM80.9457 43L80.8458 42.9955L80.8412 43.1H80.9457V43ZM80.9997 41.794L81.0996 41.7985L81.1043 41.694H80.9997V41.794ZM80.9277 41.794V41.694H80.8733L80.8438 41.7397L80.9277 41.794ZM79.9377 40.57L80.0046 40.6443L80.006 40.6431L79.9377 40.57ZM80.9097 39.148L81.0002 39.1906L81.0097 39.1704V39.148H80.9097ZM80.9097 35.854H81.0097V35.777L80.9353 35.7573L80.9097 35.854ZM78.0117 36.43L77.9338 36.3673L77.9329 36.3685L78.0117 36.43ZM77.7957 40.408L77.7077 40.4556L77.7094 40.4584L77.7957 40.408ZM78.2457 43.27V43.17C77.2436 43.17 76.4577 42.7876 75.8774 42.0216L75.7977 42.082L75.718 42.1424C76.3378 42.9604 77.1838 43.37 78.2457 43.37V43.27ZM75.7977 42.082L75.8779 42.0222C75.2952 41.2414 74.9977 40.1493 74.9977 38.734H74.8977H74.7977C74.7977 40.1747 75.1003 41.3146 75.7176 42.1418L75.7977 42.082ZM74.8977 38.734H74.9977C74.9977 37.0466 75.4313 35.7732 76.2834 34.8977L76.2117 34.828L76.1401 34.7583C75.2402 35.6828 74.7977 37.0134 74.7977 38.734H74.8977ZM76.2117 34.828L76.2829 34.8982C77.1471 34.0224 78.3783 33.578 79.9917 33.578V33.478V33.378C78.3411 33.378 77.0524 33.8336 76.1406 34.7578L76.2117 34.828ZM79.9917 33.478V33.578C80.1574 33.578 80.3106 33.5839 80.4514 33.5957L80.4597 33.496L80.468 33.3963C80.3209 33.3841 80.1621 33.378 79.9917 33.378V33.478ZM80.4597 33.496V33.596C80.601 33.596 80.7484 33.6019 80.9021 33.6137L80.9097 33.514L80.9174 33.4143C80.7591 33.4021 80.6065 33.396 80.4597 33.396V33.496ZM80.9097 33.514H81.0097V29.86H80.9097H80.8097V33.514H80.9097ZM80.9097 29.86V29.96H83.4117V29.86V29.76H80.9097V29.86ZM83.4117 29.86H83.3117V43H83.4117H83.5117V29.86H83.4117ZM83.4117 43V42.9H80.9457V43V43.1H83.4117V43ZM80.9457 43L81.0456 43.0045L81.0996 41.7985L80.9997 41.794L80.8998 41.7895L80.8458 42.9955L80.9457 43ZM80.9997 41.794V41.694H80.9277V41.794V41.894H80.9997V41.794ZM80.9277 41.794L80.8438 41.7397C80.2258 42.6958 79.3631 43.17 78.2457 43.17V43.27V43.37C79.4324 43.37 80.3577 42.8602 81.0117 41.8483L80.9277 41.794ZM78.8217 41.056V41.156C79.2364 41.156 79.6312 40.9804 80.0046 40.6443L79.9377 40.57L79.8708 40.4957C79.5242 40.8076 79.1751 40.956 78.8217 40.956V41.056ZM79.9377 40.57L80.006 40.6431C80.378 40.2959 80.7087 39.8101 81.0002 39.1906L80.9097 39.148L80.8193 39.1054C80.5348 39.7099 80.2174 40.1721 79.8695 40.4969L79.9377 40.57ZM80.9097 39.148H81.0097V35.854H80.9097H80.8097V39.148H80.9097ZM80.9097 35.854L80.9353 35.7573C80.5201 35.6474 80.1214 35.592 79.7397 35.592V35.692V35.792C80.102 35.792 80.4834 35.8446 80.8841 35.9507L80.9097 35.854ZM79.7397 35.692V35.592C78.9601 35.592 78.3526 35.847 77.9338 36.3673L78.0117 36.43L78.0896 36.4927C78.4629 36.029 79.0074 35.792 79.7397 35.792V35.692ZM78.0117 36.43L77.9329 36.3685C77.5297 36.8851 77.3357 37.6307 77.3357 38.59H77.4357H77.5357C77.5357 37.6533 77.7258 36.9589 78.0906 36.4915L78.0117 36.43ZM77.4357 38.59H77.3357C77.3357 39.3667 77.4568 39.9913 77.7078 40.4556L77.7957 40.408L77.8837 40.3604C77.6547 39.9367 77.5357 39.3493 77.5357 38.59H77.4357ZM77.7957 40.408L77.7094 40.4584C77.9759 40.9153 78.348 41.156 78.8217 41.156V41.056V40.956C78.4315 40.956 78.1196 40.7647 77.8821 40.3576L77.7957 40.408ZM86.7364 43H86.6364V43.1H86.7364V43ZM86.7364 33.73V33.63H86.6364V33.73H86.7364ZM89.2204 33.73H89.3204V33.63H89.2204V33.73ZM89.2204 35.17H89.1204V35.5078L89.3043 35.2244L89.2204 35.17ZM93.9904 33.982L93.934 34.0646L93.9349 34.0652L93.9904 33.982ZM95.0884 35.386L94.9949 35.4215L95.0657 35.6079L95.1728 35.4397L95.0884 35.386ZM96.4924 33.946L96.5427 34.0325L96.5433 34.0321L96.4924 33.946ZM100.614 34.378L100.541 34.4457L100.542 34.4472L100.614 34.378ZM101.46 43V43.1H101.56V43H101.46ZM98.9224 43H98.8224V43.1H98.9224V43ZM98.5624 36.106L98.4867 36.1714L98.4884 36.1733L98.5624 36.106ZM96.2404 36.322L96.1707 36.2503L96.1697 36.2513L96.2404 36.322ZM95.3224 37.888L95.2272 37.8575L95.2224 37.8724V37.888H95.3224ZM95.3224 43V43.1H95.4224V43H95.3224ZM92.7844 43H92.6844V43.1H92.7844V43ZM92.4244 36.124L92.3489 36.1896L92.3504 36.1913L92.4244 36.124ZM90.2284 36.214L90.2917 36.2914L90.2931 36.2903L90.2284 36.214ZM89.2744 37.6L89.1816 37.5629L89.1744 37.5807V37.6H89.2744ZM89.2744 43V43.1H89.3744V43H89.2744ZM86.7364 43H86.8364V33.73H86.7364H86.6364V43H86.7364ZM86.7364 33.73V33.83H89.2204V33.73V33.63H86.7364V33.73ZM89.2204 33.73H89.1204V35.17H89.2204H89.3204V33.73H89.2204ZM89.2204 35.17L89.3043 35.2244C90.0196 34.1222 90.9793 33.578 92.1904 33.578V33.478V33.378C90.9055 33.378 89.8853 33.9618 89.1365 35.1156L89.2204 35.17ZM92.1904 33.478V33.578C92.8822 33.578 93.4616 33.7419 93.934 34.0646L93.9904 33.982L94.0468 33.8994C93.5353 33.5501 92.9147 33.378 92.1904 33.378V33.478ZM93.9904 33.982L93.9349 34.0652C94.4205 34.3889 94.7739 34.8398 94.9949 35.4215L95.0884 35.386L95.1819 35.3505C94.947 34.7322 94.5683 34.2471 94.0459 33.8988L93.9904 33.982ZM95.0884 35.386L95.1728 35.4397C95.5868 34.7891 96.0441 34.3223 96.5427 34.0325L96.4924 33.946L96.4421 33.8595C95.9087 34.1697 95.4301 34.6629 95.004 35.3323L95.0884 35.386ZM96.4924 33.946L96.5433 34.0321C97.0544 33.7301 97.6365 33.578 98.2924 33.578V33.478V33.378C97.6043 33.378 96.9864 33.5379 96.4415 33.8599L96.4924 33.946ZM98.2924 33.478V33.578C99.2671 33.578 100.012 33.8707 100.541 34.4457L100.614 34.378L100.688 34.3103C100.113 33.6853 99.3097 33.378 98.2924 33.378V33.478ZM100.614 34.378L100.542 34.4472C101.084 35.0116 101.36 35.8059 101.36 36.844H101.46H101.56C101.56 35.7701 101.273 34.9204 100.687 34.3088L100.614 34.378ZM101.46 36.844H101.36V43H101.46H101.56V36.844H101.46ZM101.46 43V42.9H98.9224V43V43.1H101.46V43ZM98.9224 43H99.0224V37.24H98.9224H98.8224V43H98.9224ZM98.9224 37.24H99.0224C99.0224 36.7326 98.8986 36.3271 98.6364 36.0387L98.5624 36.106L98.4884 36.1733C98.7062 36.4129 98.8224 36.7634 98.8224 37.24H98.9224ZM98.5624 36.106L98.6381 36.0406C98.3884 35.7515 98.0471 35.61 97.6264 35.61V35.71V35.81C97.9977 35.81 98.2804 35.9325 98.4867 36.1714L98.5624 36.106ZM97.6264 35.71V35.61C97.0922 35.61 96.6061 35.8273 96.1707 36.2503L96.2404 36.322L96.3101 36.3937C96.7147 36.0007 97.1526 35.81 97.6264 35.81V35.71ZM96.2404 36.322L96.1697 36.2513C95.7488 36.6722 95.4353 37.2087 95.2272 37.8575L95.3224 37.888L95.4176 37.9185C95.6175 37.2953 95.916 36.7878 96.3111 36.3927L96.2404 36.322ZM95.3224 37.888H95.2224V43H95.3224H95.4224V37.888H95.3224ZM95.3224 43V42.9H92.7844V43V43.1H95.3224V43ZM92.7844 43H92.8844V37.24H92.7844H92.6844V43H92.7844ZM92.7844 37.24H92.8844C92.8844 36.7438 92.7602 36.3447 92.4984 36.0567L92.4244 36.124L92.3504 36.1913C92.5686 36.4313 92.6844 36.7762 92.6844 37.24H92.7844ZM92.4244 36.124L92.4999 36.0584C92.2392 35.7586 91.8926 35.61 91.4704 35.61V35.71V35.81C91.8402 35.81 92.1296 35.9374 92.3489 36.1896L92.4244 36.124ZM91.4704 35.71V35.61C91.0101 35.61 90.574 35.7897 90.1637 36.1377L90.2284 36.214L90.2931 36.2903C90.6748 35.9663 91.0667 35.81 91.4704 35.81V35.71ZM90.2284 36.214L90.1651 36.1366C89.753 36.4738 89.4262 36.9512 89.1816 37.5629L89.2744 37.6L89.3673 37.6371C89.6026 37.0488 89.9118 36.6022 90.2917 36.2914L90.2284 36.214ZM89.2744 37.6H89.1744V43H89.2744H89.3744V37.6H89.2744ZM89.2744 43V42.9H86.7364V43V43.1H89.2744V43ZM105.797 32.2H105.697V32.3H105.797V32.2ZM105.797 29.86V29.76H105.697V29.86H105.797ZM108.695 29.86H108.795V29.76H108.695V29.86ZM108.695 32.2V32.3H108.795V32.2H108.695ZM104.393 43H104.293V43.1H104.393V43ZM104.393 40.822V40.722H104.293V40.822H104.393ZM106.121 40.822V40.922H106.221V40.822H106.121ZM106.121 35.908H106.221V35.808H106.121V35.908ZM104.393 35.908H104.293V36.008H104.393V35.908ZM104.393 33.73V33.63H104.293V33.73H104.393ZM108.659 33.73H108.759V33.63H108.659V33.73ZM108.659 40.822H108.559V40.922H108.659V40.822ZM110.207 40.822H110.307V40.722H110.207V40.822ZM110.207 43V43.1H110.307V43H110.207ZM105.797 32.2H105.897V29.86H105.797H105.697V32.2H105.797ZM105.797 29.86V29.96H108.695V29.86V29.76H105.797V29.86ZM108.695 29.86H108.595V32.2H108.695H108.795V29.86H108.695ZM108.695 32.2V32.1H105.797V32.2V32.3H108.695V32.2ZM104.393 43H104.493V40.822H104.393H104.293V43H104.393ZM104.393 40.822V40.922H106.121V40.822V40.722H104.393V40.822ZM106.121 40.822H106.221V35.908H106.121H106.021V40.822H106.121ZM106.121 35.908V35.808H104.393V35.908V36.008H106.121V35.908ZM104.393 35.908H104.493V33.73H104.393H104.293V35.908H104.393ZM104.393 33.73V33.83H108.659V33.73V33.63H104.393V33.73ZM108.659 33.73H108.559V40.822H108.659H108.759V33.73H108.659ZM108.659 40.822V40.922H110.207V40.822V40.722H108.659V40.822ZM110.207 40.822H110.107V43H110.207H110.307V40.822H110.207ZM110.207 43V42.9H104.393V43V43.1H110.207V43ZM112.889 43H112.789V43.1H112.889V43ZM112.889 33.73V33.63H112.789V33.73H112.889ZM115.373 33.73H115.473V33.63H115.373V33.73ZM115.373 35.332H115.273V35.6969L115.459 35.383L115.373 35.332ZM116.705 33.928L116.754 34.0148L116.755 34.0145L116.705 33.928ZM120.809 34.378L120.736 34.4465L120.737 34.4472L120.809 34.378ZM121.655 43V43.1H121.755V43H121.655ZM119.117 43H119.017V43.1H119.117V43ZM118.757 36.106L118.831 36.0387L118.831 36.0387L118.757 36.106ZM116.399 36.268L116.464 36.3439L116.464 36.3438L116.399 36.268ZM115.427 37.618L115.335 37.5791L115.327 37.5978V37.618H115.427ZM115.427 43V43.1H115.527V43H115.427ZM112.889 43H112.989V33.73H112.889H112.789V43H112.889ZM112.889 33.73V33.83H115.373V33.73V33.63H112.889V33.73ZM115.373 33.73H115.273V35.332H115.373H115.473V33.73H115.373ZM115.373 35.332L115.459 35.383C115.837 34.7456 116.269 34.292 116.754 34.0148L116.705 33.928L116.655 33.8412C116.132 34.14 115.677 34.6224 115.287 35.281L115.373 35.332ZM116.705 33.928L116.755 34.0145C117.254 33.7242 117.824 33.578 118.469 33.578V33.478V33.378C117.793 33.378 117.187 33.5318 116.654 33.8415L116.705 33.928ZM118.469 33.478V33.578C119.443 33.578 120.195 33.8707 120.736 34.4465L120.809 34.378L120.882 34.3095C120.295 33.6853 119.486 33.378 118.469 33.378V33.478ZM120.809 34.378L120.737 34.4472C121.278 35.0116 121.555 35.8059 121.555 36.844H121.655H121.755C121.755 35.7701 121.468 34.9204 120.881 34.3088L120.809 34.378ZM121.655 36.844H121.555V43H121.655H121.755V36.844H121.655ZM121.655 43V42.9H119.117V43V43.1H121.655V43ZM119.117 43H119.217V37.24H119.117H119.017V43H119.117ZM119.117 37.24H119.217C119.217 36.7326 119.093 36.3271 118.831 36.0387L118.757 36.106L118.683 36.1733C118.901 36.4129 119.017 36.7634 119.017 37.24H119.117ZM118.757 36.106L118.831 36.0387C118.569 35.7508 118.216 35.61 117.785 35.61V35.71V35.81C118.169 35.81 118.465 35.9332 118.683 36.1733L118.757 36.106ZM117.785 35.71V35.61C117.265 35.61 116.781 35.8072 116.333 36.1922L116.399 36.268L116.464 36.3438C116.881 35.9848 117.32 35.81 117.785 35.81V35.71ZM116.399 36.268L116.334 36.1921C115.901 36.5628 115.568 37.0257 115.335 37.5791L115.427 37.618L115.519 37.6569C115.741 37.1303 116.056 36.6932 116.464 36.3439L116.399 36.268ZM115.427 37.618H115.327V43H115.427H115.527V37.618H115.427ZM115.427 43V42.9H112.889V43V43.1H115.427V43Z" fill="white" mask="url(#path-29-outside-1_354_36)"/>
</svg>
