<svg width="50" height="50" viewBox="0 0 50 50" fill="none" xmlns="http://www.w3.org/2000/svg">
<path d="M0 35V15C0 6.71573 6.71573 0 15 0H35C43.2843 0 50 6.71573 50 15V35C50 43.2843 43.2843 50 35 50H15C6.71573 50 0 43.2843 0 35Z" fill="#00ADB5"/>
<path d="M12 23H14" stroke="white" stroke-width="2" stroke-linecap="round"/>
<path d="M16 27H23" stroke="white" stroke-width="2" stroke-linecap="round"/>
<path d="M23 12H27" stroke="white" stroke-width="2" stroke-linecap="round"/>
<path d="M23 15L23 16" stroke="white" stroke-width="2" stroke-linecap="round"/>
<path d="M27 15L27 21" stroke="white" stroke-width="2" stroke-linecap="round"/>
<path d="M27 24L27 30" stroke="white" stroke-width="2" stroke-linecap="round"/>
<path d="M35 38V35" stroke="white" stroke-width="2" stroke-linecap="round"/>
<path d="M35 32V31" stroke="white" stroke-width="2" stroke-linecap="round"/>
<path d="M27 38V37" stroke="white" stroke-width="2" stroke-linecap="round"/>
<path d="M27 34V33" stroke="white" stroke-width="2" stroke-linecap="round"/>
<path d="M31 34V31" stroke="white" stroke-width="2" stroke-linecap="round"/>
<path d="M31 38H32" stroke="white" stroke-width="2" stroke-linecap="round"/>
<path d="M38 31V34" stroke="white" stroke-width="2" stroke-linecap="round"/>
<path d="M38 37V38" stroke="white" stroke-width="2" stroke-linecap="round"/>
<path d="M23 34L23 38" stroke="white" stroke-width="2" stroke-linecap="round"/>
<path d="M34 27L34.5 27" stroke="white" stroke-width="2" stroke-linecap="round"/>
<path d="M31 27H31.5" stroke="white" stroke-width="2" stroke-linecap="round"/>
<path d="M23 30L23 31" stroke="white" stroke-width="2" stroke-linecap="round"/>
<path d="M31 23H38" stroke="white" stroke-width="2" stroke-linecap="round"/>
<path d="M37 27H38" stroke="white" stroke-width="2" stroke-linecap="round"/>
<path d="M18 23H19" stroke="white" stroke-width="2" stroke-linecap="round"/>
<path d="M12 27H13" stroke="white" stroke-width="2" stroke-linecap="round"/>
<path d="M23 24L23 20" stroke="white" stroke-width="2" stroke-linecap="round"/>
<path d="M31 18V12C31 11.4477 31.4477 11 32 11H38C38.5523 11 39 11.4477 39 12V18C39 18.5523 38.5523 19 38 19H32C31.4477 19 31 18.5523 31 18Z" fill="#00ADB5" stroke="white" stroke-width="2"/>
<path d="M11 18V12C11 11.4477 11.4477 11 12 11H18C18.5523 11 19 11.4477 19 12V18C19 18.5523 18.5523 19 18 19H12C11.4477 19 11 18.5523 11 18Z" fill="#00ADB5" stroke="white" stroke-width="2"/>
<path d="M11 38V32C11 31.4477 11.4477 31 12 31H18C18.5523 31 19 31.4477 19 32V38C19 38.5523 18.5523 39 18 39H12C11.4477 39 11 38.5523 11 38Z" fill="#00ADB5" stroke="white" stroke-width="2"/>
</svg>
